<svg width="104" height="104" viewBox="0 0 104 104" fill="none" xmlns="http://www.w3.org/2000/svg">
<g filter="url(#filter0_d_836_900)">
<rect x="15" y="10" width="64" height="64" rx="30" fill="#D7D7D7"/>
<path d="M56.3333 34H52.3333V32.6667C52.3333 31.9594 52.0524 31.2811 51.5523 30.781C51.0522 30.281 50.3739 30 49.6667 30H44.3333C43.6261 30 42.9478 30.281 42.4477 30.781C41.9476 31.2811 41.6667 31.9594 41.6667 32.6667V34H37.6667C36.6058 34 35.5884 34.4214 34.8382 35.1716C34.0881 35.9217 33.6667 36.9391 33.6667 38V50C33.6667 51.0609 34.0881 52.0783 34.8382 52.8284C35.5884 53.5786 36.6058 54 37.6667 54H56.3333C57.3942 54 58.4116 53.5786 59.1618 52.8284C59.9119 52.0783 60.3333 51.0609 60.3333 50V38C60.3333 36.9391 59.9119 35.9217 59.1618 35.1716C58.4116 34.4214 57.3942 34 56.3333 34ZM44.3333 32.6667H49.6667V34H44.3333V32.6667ZM57.6667 50C57.6667 50.3536 57.5262 50.6928 57.2761 50.9428C57.0261 51.1929 56.6869 51.3333 56.3333 51.3333H37.6667C37.313 51.3333 36.9739 51.1929 36.7238 50.9428C36.4738 50.6928 36.3333 50.3536 36.3333 50V42.52L42.5733 44.6667C42.7149 44.6859 42.8584 44.6859 43 44.6667H51C51.1446 44.664 51.2881 44.6416 51.4267 44.6L57.6667 42.52V50ZM57.6667 39.7067L50.7867 42H43.2133L36.3333 39.7067V38C36.3333 37.6464 36.4738 37.3072 36.7238 37.0572C36.9739 36.8071 37.313 36.6667 37.6667 36.6667H56.3333C56.6869 36.6667 57.0261 36.8071 57.2761 37.0572C57.5262 37.3072 57.6667 37.6464 57.6667 38V39.7067Z" fill="#CC1010"/>
</g>
<defs>
<filter id="filter0_d_836_900" x="0" y="0" width="104" height="104" filterUnits="userSpaceOnUse" color-interpolation-filters="sRGB">
<feFlood flood-opacity="0" result="BackgroundImageFix"/>
<feColorMatrix in="SourceAlpha" type="matrix" values="0 0 0 0 0 0 0 0 0 0 0 0 0 0 0 0 0 0 127 0" result="hardAlpha"/>
<feMorphology radius="4" operator="erode" in="SourceAlpha" result="effect1_dropShadow_836_900"/>
<feOffset dx="5" dy="10"/>
<feGaussianBlur stdDeviation="12"/>
<feComposite in2="hardAlpha" operator="out"/>
<feColorMatrix type="matrix" values="0 0 0 0 0.937255 0 0 0 0 0.94902 0 0 0 0 0.964706 0 0 0 0.4 0"/>
<feBlend mode="normal" in2="BackgroundImageFix" result="effect1_dropShadow_836_900"/>
<feBlend mode="normal" in="SourceGraphic" in2="effect1_dropShadow_836_900" result="shape"/>
</filter>
</defs>
</svg>
