<svg width="38" height="38" viewBox="0 0 38 38" fill="none" xmlns="http://www.w3.org/2000/svg">
<path d="M31.6666 14.1551C31.6501 14.0096 31.6182 13.8663 31.5716 13.7276V13.5851C31.4955 13.4223 31.3939 13.2726 31.2708 13.1417L21.7708 3.64175C21.6399 3.51859 21.4902 3.41704 21.3274 3.34091H21.1849C21.0241 3.24867 20.8464 3.18946 20.6624 3.16675H11.0833C9.82347 3.16675 8.61529 3.66719 7.72449 4.55799C6.8337 5.44879 6.33325 6.65697 6.33325 7.91675V30.0834C6.33325 31.3432 6.8337 32.5514 7.72449 33.4422C8.61529 34.333 9.82347 34.8334 11.0833 34.8334H26.9166C28.1764 34.8334 29.3845 34.333 30.2753 33.4422C31.1661 32.5514 31.6666 31.3432 31.6666 30.0834V14.2501C31.6666 14.2501 31.6666 14.2501 31.6666 14.1551ZM22.1666 8.56591L26.2674 12.6667H23.7499C23.33 12.6667 22.9273 12.4999 22.6303 12.203C22.3334 11.9061 22.1666 11.5033 22.1666 11.0834V8.56591ZM28.4999 30.0834C28.4999 30.5033 28.3331 30.9061 28.0362 31.203C27.7392 31.4999 27.3365 31.6667 26.9166 31.6667H11.0833C10.6633 31.6667 10.2606 31.4999 9.96367 31.203C9.66673 30.9061 9.49992 30.5033 9.49992 30.0834V7.91675C9.49992 7.49682 9.66673 7.09409 9.96367 6.79716C10.2606 6.50023 10.6633 6.33341 11.0833 6.33341H18.9999V11.0834C18.9999 12.3432 19.5004 13.5514 20.3912 14.4422C21.282 15.333 22.4901 15.8334 23.7499 15.8334H28.4999V30.0834Z" fill="black"/>
</svg>
