<svg width="50" height="51" viewBox="0 0 50 51" fill="none" xmlns="http://www.w3.org/2000/svg">
<path d="M45.428 21.8029H43.7498V21.7165H24.9998V30.0498H36.7738C35.0561 34.9009 30.4405 38.3832 24.9998 38.3832C18.0967 38.3832 12.4998 32.7863 12.4998 25.8832C12.4998 18.98 18.0967 13.3832 24.9998 13.3832C28.1863 13.3832 31.0853 14.5852 33.2925 16.5488L39.1853 10.6561C35.4644 7.18836 30.4873 5.04982 24.9998 5.04982C13.4946 5.04982 4.1665 14.3779 4.1665 25.8832C4.1665 37.3884 13.4946 46.7165 24.9998 46.7165C36.505 46.7165 45.8332 37.3884 45.8332 25.8832C45.8332 24.4863 45.6894 23.1227 45.428 21.8029Z" fill="#FFC107"/>
<path d="M6.56885 16.1863L13.4136 21.2061C15.2657 16.6207 19.7511 13.3832 25.0001 13.3832C28.1866 13.3832 31.0855 14.5852 33.2928 16.5488L39.1855 10.6561C35.4647 7.18836 30.4876 5.04982 25.0001 5.04982C16.998 5.04982 10.0584 9.56753 6.56885 16.1863Z" fill="#FF3D00"/>
<path d="M25 46.7165C30.3812 46.7165 35.2708 44.6571 38.9677 41.3081L32.5198 35.8519C30.3579 37.4961 27.7161 38.3853 25 38.3831C19.5812 38.3831 14.9802 34.9279 13.2469 30.1061L6.45312 35.3404C9.90104 42.0873 16.9031 46.7165 25 46.7165Z" fill="#4CAF50"/>
<path d="M45.4281 21.8029H43.75V21.7165H25V30.0498H36.774C35.9523 32.3586 34.4722 34.376 32.5167 35.8529L32.5198 35.8509L38.9677 41.3071C38.5115 41.7217 45.8333 36.2998 45.8333 25.8831C45.8333 24.4863 45.6896 23.1227 45.4281 21.8029Z" fill="#1976D2"/>
</svg>
