<svg width="28" height="27" viewBox="0 0 28 27" fill="none" xmlns="http://www.w3.org/2000/svg">
<path fill-rule="evenodd" clip-rule="evenodd" d="M8.04551 24.9295C3.33664 22.9685 0.263985 18.3737 0.25036 13.2728C0.221411 7.77532 3.74276 2.88706 8.96644 1.17337C14.1901 -0.540314 19.9228 1.31205 23.1561 5.75836C26.3893 10.2047 26.3845 16.2292 23.1441 20.6703L27.1041 24.6303C27.5062 25.033 27.5062 25.6852 27.1041 26.0878C26.7015 26.49 26.0492 26.49 25.6466 26.0878L21.8104 22.2516C18.1801 25.835 12.7544 26.8905 8.04551 24.9295ZM16.9827 23.0909C20.9505 21.4444 23.5347 17.5687 23.5291 13.2728H23.4741C23.4667 7.44245 18.7581 2.70935 12.9279 2.67159C8.632 2.66603 4.7563 5.25025 3.10977 9.21805C1.46324 13.1859 2.37054 17.7549 5.40818 20.7925C8.44582 23.8302 13.0149 24.7375 16.9827 23.0909Z" fill="#B9B9B9"/>
</svg>
