<svg width="33" height="34" viewBox="0 0 33 34" fill="none" xmlns="http://www.w3.org/2000/svg">
<path fill-rule="evenodd" clip-rule="evenodd" d="M10.5455 27.9295C5.83664 25.9685 2.76398 21.3737 2.75036 16.2728C2.72141 10.7753 6.24276 5.88706 11.4664 4.17337C16.6901 2.45969 22.4228 4.31205 25.6561 8.75837C28.8893 13.2047 28.8845 19.2292 25.6441 23.6703L29.6041 27.6303C30.0062 28.033 30.0062 28.6852 29.6041 29.0878C29.2015 29.49 28.5492 29.49 28.1466 29.0878L24.3104 25.2516C20.6801 28.835 15.2544 29.8905 10.5455 27.9295ZM19.4827 26.0909C23.4505 24.4444 26.0347 20.5687 26.0291 16.2728H25.9741C25.9667 10.4424 21.2581 5.70935 15.4279 5.67159C11.132 5.66603 7.2563 8.25025 5.60977 12.2181C3.96324 16.1859 4.87054 20.7549 7.90818 23.7925C10.9458 26.8302 15.5149 27.7375 19.4827 26.0909Z" fill="#B9B9B9"/>
</svg>
