<svg width="104" height="104" viewBox="0 0 104 104" fill="none" xmlns="http://www.w3.org/2000/svg">
<g filter="url(#filter0_d_403_489)">
<rect x="15" y="10" width="64" height="64" rx="30" fill="#EFF2F6"/>
<path d="M57.8933 38.3067L39.2267 30.6C38.5204 30.3077 37.7451 30.2239 36.9927 30.3585C36.2402 30.4932 35.5421 30.8406 34.981 31.3596C34.4199 31.8787 34.0192 32.5476 33.8264 33.2873C33.6337 34.027 33.6569 34.8064 33.8933 35.5333L35.9467 42L33.84 48.4667C33.5972 49.1965 33.5699 49.9808 33.7614 50.7257C33.953 51.4706 34.3552 52.1445 34.92 52.6667C35.6462 53.3401 36.5964 53.7202 37.5867 53.7333C38.113 53.733 38.634 53.6288 39.12 53.4267L57.8533 45.72C58.5829 45.4166 59.2063 44.9039 59.6448 44.2466C60.0833 43.5893 60.3173 42.8168 60.3173 42.0267C60.3173 41.2365 60.0833 40.4641 59.6448 39.8068C59.2063 39.1495 58.5829 38.6368 57.8533 38.3333L57.8933 38.3067ZM38.1467 50.9333C37.9115 51.0304 37.6534 51.0581 37.403 51.0132C37.1526 50.9683 36.9202 50.8527 36.7333 50.68C36.5573 50.5118 36.4307 50.2986 36.3672 50.0636C36.3038 49.8285 36.3059 49.5806 36.3733 49.3467L38.32 43.3333H56.6267L38.1467 50.9333ZM38.32 40.6667L36.3333 34.7067C36.2659 34.4727 36.2638 34.2248 36.3273 33.9898C36.3907 33.7547 36.5173 33.5415 36.6933 33.3733C36.8188 33.2417 36.9699 33.1371 37.1373 33.066C37.3047 32.995 37.4848 32.9589 37.6667 32.96C37.8454 32.9603 38.0222 32.9966 38.1867 33.0667L56.6267 40.6667H38.32Z" fill="#E8C300"/>
</g>
<defs>
<filter id="filter0_d_403_489" x="0" y="0" width="104" height="104" filterUnits="userSpaceOnUse" color-interpolation-filters="sRGB">
<feFlood flood-opacity="0" result="BackgroundImageFix"/>
<feColorMatrix in="SourceAlpha" type="matrix" values="0 0 0 0 0 0 0 0 0 0 0 0 0 0 0 0 0 0 127 0" result="hardAlpha"/>
<feMorphology radius="4" operator="erode" in="SourceAlpha" result="effect1_dropShadow_403_489"/>
<feOffset dx="5" dy="10"/>
<feGaussianBlur stdDeviation="12"/>
<feComposite in2="hardAlpha" operator="out"/>
<feColorMatrix type="matrix" values="0 0 0 0 0.937255 0 0 0 0 0.94902 0 0 0 0 0.964706 0 0 0 0.4 0"/>
<feBlend mode="normal" in2="BackgroundImageFix" result="effect1_dropShadow_403_489"/>
<feBlend mode="normal" in="SourceGraphic" in2="effect1_dropShadow_403_489" result="shape"/>
</filter>
</defs>
</svg>
