<svg width="38" height="38" viewBox="0 0 38 38" fill="none" xmlns="http://www.w3.org/2000/svg">
<path d="M33.7568 7.99582L24.2568 4.82915H24.1459C24.0722 4.82174 23.998 4.82174 23.9243 4.82915H23.5601H23.3543H23.2434L14.2501 7.91665L5.25675 4.82915C5.01864 4.75064 4.76529 4.72979 4.51755 4.76833C4.26981 4.80687 4.03476 4.90368 3.83175 5.05082C3.62712 5.19651 3.46009 5.3888 3.34446 5.6118C3.22883 5.83481 3.16791 6.08212 3.16675 6.33332V28.5C3.1659 28.8319 3.26938 29.1557 3.46259 29.4256C3.65579 29.6956 3.92894 29.8979 4.24342 30.0042L13.7434 33.1708C14.0624 33.2748 14.4061 33.2748 14.7251 33.1708L23.7501 30.1625L32.7434 33.25C32.9115 33.2728 33.082 33.2728 33.2501 33.25C33.5811 33.2546 33.9043 33.1488 34.1684 32.9492C34.3731 32.8035 34.5401 32.6112 34.6557 32.3882C34.7713 32.1652 34.8323 31.9178 34.8334 31.6667V9.49999C34.8343 9.16805 34.7308 8.84424 34.5376 8.57432C34.3444 8.30441 34.0712 8.10204 33.7568 7.99582ZM12.6668 29.4658L6.33342 27.36V8.53415L12.6668 10.64V29.4658ZM22.1668 27.36L15.8334 29.4658V10.64L22.1668 8.53415V27.36ZM31.6668 29.4658L25.3334 27.36V8.53415L31.6668 10.64V29.4658Z" fill="black"/>
</svg>
