<svg width="44" height="44" viewBox="0 0 44 44" fill="none" xmlns="http://www.w3.org/2000/svg">
<path d="M28.8018 23.3016C28.9687 23.1273 29.0995 22.9217 29.1868 22.6966C29.3701 22.2503 29.3701 21.7496 29.1868 21.3033C29.0995 21.0783 28.9687 20.8727 28.8018 20.6983L23.3018 15.1983C22.9565 14.8531 22.4883 14.6591 22.0001 14.6591C21.5119 14.6591 21.0436 14.8531 20.6984 15.1983C20.3532 15.5435 20.1593 16.0117 20.1593 16.5C20.1593 16.9882 20.3532 17.4564 20.6984 17.8016L23.0818 20.1666H16.5001C16.0139 20.1666 15.5475 20.3598 15.2037 20.7036C14.8599 21.0474 14.6668 21.5137 14.6668 22C14.6668 22.4862 14.8599 22.9525 15.2037 23.2963C15.5475 23.6401 16.0139 23.8333 16.5001 23.8333H23.0818L20.6984 26.1983C20.5266 26.3687 20.3902 26.5715 20.2971 26.7949C20.204 27.0183 20.1561 27.2579 20.1561 27.5C20.1561 27.742 20.204 27.9816 20.2971 28.205C20.3902 28.4284 20.5266 28.6312 20.6984 28.8016C20.8689 28.9735 21.0716 29.1099 21.295 29.2029C21.5184 29.296 21.7581 29.3439 22.0001 29.3439C22.2421 29.3439 22.4817 29.296 22.7051 29.2029C22.9286 29.1099 23.1313 28.9735 23.3018 28.8016L28.8018 23.3016ZM40.3334 22C40.3334 18.374 39.2582 14.8294 37.2437 11.8145C35.2292 8.79961 32.3659 6.44978 29.016 5.06218C25.666 3.67457 21.9798 3.31151 18.4234 4.0189C14.8671 4.7263 11.6004 6.47238 9.03647 9.03634C6.4725 11.6003 4.72642 14.867 4.01903 18.4233C3.31163 21.9796 3.67469 25.6659 5.0623 29.0158C6.4499 32.3658 8.79973 35.2291 11.8146 37.2436C14.8295 39.2581 18.3741 40.3333 22.0001 40.3333C26.8624 40.3333 31.5255 38.4018 34.9637 34.9636C38.4019 31.5254 40.3334 26.8623 40.3334 22ZM7.33342 22C7.33342 19.0992 8.19361 16.2635 9.8052 13.8516C11.4168 11.4397 13.7074 9.55982 16.3874 8.44973C19.0674 7.33965 22.0164 7.0492 24.8614 7.61512C27.7065 8.18103 30.3198 9.5779 32.371 11.6291C34.4222 13.6802 35.819 16.2936 36.3849 19.1386C36.9509 21.9837 36.6604 24.9327 35.5503 27.6127C34.4402 30.2926 32.5604 32.5833 30.1485 34.1949C27.7365 35.8064 24.9009 36.6666 22.0001 36.6666C18.1102 36.6666 14.3797 35.1214 11.6292 32.3709C8.87866 29.6203 7.33342 25.8898 7.33342 22Z" fill="white"/>
</svg>
