<svg width="44" height="44" viewBox="0 0 44 44" fill="none" xmlns="http://www.w3.org/2000/svg">
<path d="M36.9601 8.45161C35.0137 6.50462 32.4331 5.32087 29.6877 5.11564C26.9423 4.91041 24.2144 5.69732 22.0001 7.33328C19.6675 5.59828 16.7641 4.81155 13.8746 5.13151C10.9852 5.45148 8.32424 6.85437 6.42772 9.05768C4.53119 11.261 3.53994 14.1011 3.65357 17.006C3.76719 19.9109 4.97726 22.6648 7.0401 24.7133L20.6984 38.3716C20.8689 38.5434 21.0716 38.6798 21.295 38.7729C21.5184 38.866 21.7581 38.9139 22.0001 38.9139C22.2421 38.9139 22.4817 38.866 22.7052 38.7729C22.9286 38.6798 23.1313 38.5434 23.3018 38.3716L36.9601 24.7133C38.0283 23.6458 38.8757 22.3782 39.4538 20.9831C40.032 19.588 40.3295 18.0926 40.3295 16.5824C40.3295 15.0723 40.032 13.5769 39.4538 12.1818C38.8757 10.7866 38.0283 9.51912 36.9601 8.45161V8.45161ZM34.3751 22.1283L22.0001 34.4849L9.6251 22.1283C8.53458 21.0332 7.79172 19.6405 7.48969 18.1249C7.18765 16.6093 7.3399 15.0382 7.92734 13.6088C8.51478 12.1793 9.51124 10.9552 10.7917 10.0899C12.0722 9.22464 13.5797 8.75675 15.1251 8.74494C17.1896 8.75 19.1678 9.57423 20.6251 11.0366C20.7955 11.2084 20.9983 11.3448 21.2217 11.4379C21.4451 11.531 21.6847 11.5789 21.9268 11.5789C22.1688 11.5789 22.4084 11.531 22.6318 11.4379C22.8552 11.3448 23.058 11.2084 23.2284 11.0366C24.7287 9.73656 26.6668 9.05504 28.6506 9.12999C30.6343 9.20493 32.5155 10.0307 33.9134 11.4403C35.3113 12.8498 36.1215 14.7378 36.18 16.7221C36.2385 18.7064 35.5409 20.6389 34.2284 22.1283H34.3751Z" fill="black"/>
</svg>
