<svg width="44" height="44" viewBox="0 0 44 44" fill="none" xmlns="http://www.w3.org/2000/svg">
<path d="M15.1984 20.6983C15.0315 20.8726 14.9007 21.0782 14.8134 21.3033C14.63 21.7496 14.63 22.2503 14.8134 22.6966C14.9007 22.9217 15.0315 23.1273 15.1984 23.3016L20.6984 28.8016C21.0436 29.1468 21.5119 29.3408 22.0001 29.3408C22.4883 29.3408 22.9565 29.1468 23.3017 28.8016C23.647 28.4564 23.8409 27.9882 23.8409 27.5C23.8409 27.0117 23.647 26.5435 23.3017 26.1983L20.9184 23.8333H27.5001C27.9863 23.8333 28.4526 23.6401 28.7964 23.2963C29.1403 22.9525 29.3334 22.4862 29.3334 22C29.3334 21.5137 29.1403 21.0474 28.7964 20.7036C28.4526 20.3598 27.9863 20.1666 27.5001 20.1666H20.9184L23.3017 17.8016C23.4736 17.6312 23.61 17.4284 23.703 17.205C23.7961 16.9816 23.844 16.742 23.844 16.5C23.844 16.2579 23.7961 16.0183 23.703 15.7949C23.61 15.5715 23.4736 15.3687 23.3017 15.1983C23.1313 15.0265 22.9285 14.8901 22.7051 14.797C22.4817 14.7039 22.2421 14.656 22.0001 14.656C21.7581 14.656 21.5184 14.7039 21.295 14.797C21.0716 14.8901 20.8688 15.0265 20.6984 15.1983L15.1984 20.6983ZM3.66675 22C3.66675 25.6259 4.74198 29.1705 6.75647 32.1854C8.77096 35.2003 11.6342 37.5501 14.9842 38.9378C18.3342 40.3254 22.0204 40.6884 25.5767 39.981C29.1331 39.2736 32.3997 37.5275 34.9637 34.9636C37.5277 32.3996 39.2738 29.1329 39.9811 25.5766C40.6885 22.0203 40.3255 18.3341 38.9379 14.9841C37.5503 11.6341 35.2004 8.77084 32.1855 6.75635C29.1706 4.74186 25.6261 3.66663 22.0001 3.66663C19.5925 3.66663 17.2085 4.14083 14.9842 5.06217C12.7599 5.9835 10.7389 7.33393 9.03646 9.03633C5.59829 12.4745 3.66675 17.1377 3.66675 22ZM36.6667 22C36.6667 24.9008 35.8066 27.7364 34.195 30.1483C32.5834 32.5602 30.2928 34.4401 27.6128 35.5502C24.9328 36.6603 21.9838 36.9507 19.1388 36.3848C16.2937 35.8189 13.6804 34.422 11.6292 32.3709C9.57801 30.3197 8.18115 27.7063 7.61523 24.8613C7.04931 22.0162 7.33976 19.0673 8.44985 16.3873C9.55993 13.7073 11.4398 11.4167 13.8517 9.80507C16.2636 8.19348 19.0993 7.33329 22.0001 7.33329C25.8899 7.33329 29.6204 8.87853 32.371 11.6291C35.1215 14.3796 36.6667 18.1101 36.6667 22Z" fill="white"/>
</svg>
