<svg width="38" height="38" viewBox="0 0 38 38" fill="none" xmlns="http://www.w3.org/2000/svg">
<path d="M15.9074 23.2641C14.8724 23.2641 13.8369 23.2449 12.8025 23.2697C12.3729 23.3096 11.9414 23.2177 11.5653 23.0064C11.1891 22.7951 10.8862 22.4743 10.6968 22.0866C9.14758 19.4332 8.31514 16.4225 8.28125 13.3501C8.3474 10.7969 9.39469 8.3673 11.2055 6.56615C12.3819 5.31031 13.8453 4.35861 15.4703 3.7927C17.3214 3.12365 19.3236 2.99029 21.247 3.40795C23.4132 3.8678 25.3861 4.98153 26.8991 6.59865C28.4121 8.21577 29.3922 10.2583 29.707 12.4504C29.7543 12.6489 29.7242 12.858 29.6229 13.0352C29.5215 13.2124 29.3566 13.3444 29.1614 13.4043C28.3693 13.7367 27.528 13.9367 26.6711 13.9962C25.0169 14.1971 23.346 14.2214 21.6867 14.0686C21.0219 13.9861 20.9012 13.854 20.896 13.1677C20.889 12.2297 20.8937 11.2917 20.8927 10.3537C20.8925 10.2081 20.8902 10.0626 20.8871 9.9171C20.8961 9.84819 20.8897 9.77813 20.8685 9.71196C20.8472 9.6458 20.8115 9.58517 20.764 9.53445C20.7165 9.48373 20.6583 9.44417 20.5937 9.41861C20.529 9.39306 20.4595 9.38216 20.3902 9.38668C20.0189 9.37402 19.8541 9.584 19.8529 9.92573C19.8471 11.5267 19.8492 13.1278 19.85 14.7288C19.8503 15.1836 20.1386 15.2949 20.5261 15.2946C21.9655 15.2933 23.4049 15.288 24.8441 15.2988C25.7328 15.2769 26.6209 15.3628 27.489 15.5548C27.7829 15.5817 28.0665 15.6765 28.3176 15.8317C28.5686 15.987 28.7801 16.1984 28.9354 16.4494C29.0907 16.7004 29.1856 16.984 29.2126 17.2779C29.2396 17.5719 29.1979 17.868 29.0908 18.1431C28.6071 20.2914 27.8099 22.3568 26.7246 24.2729C25.0996 27.2187 23.2039 30.0068 21.0619 32.6011C20.5157 33.2808 19.9358 33.9334 19.3837 34.6085C19.1336 34.9143 18.9449 34.9077 18.7013 34.5919C16.7151 32.1038 14.9024 29.4821 13.2759 26.7454C13.076 26.3961 12.9179 26.0224 12.7484 25.6563C12.5854 25.3044 12.7188 25.0743 13.0542 24.9164C13.4576 24.7468 13.8855 24.6427 14.3217 24.608C15.5553 24.4285 16.809 24.4391 18.0394 24.6395C18.7515 24.7698 18.8686 24.9372 18.8678 25.6513C18.8671 26.2011 18.8587 26.7511 18.8669 27.3008C18.872 27.65 18.971 27.9841 19.3889 27.9808C19.8051 27.9775 19.9032 27.642 19.9052 27.2935C19.9116 26.1453 19.9033 24.997 19.9105 23.8488C19.9137 23.3545 19.6013 23.2602 19.2066 23.2594C18.1069 23.2572 17.0072 23.2569 15.9074 23.2586V23.2641Z" fill="black"/>
</svg>
